<svg width="28" height="28" viewBox="0 0 28 28" fill="none" xmlns="http://www.w3.org/2000/svg">
<g filter="url(#filter0_i_302_3666)">
<path d="M0 14C0 6.26801 6.26801 0 14 0V0C21.732 0 28 6.26801 28 14V14C28 21.732 21.732 28 14 28V28C6.26801 28 0 21.732 0 14V14Z" fill="#E2E8F0"/>
<path d="M13.9287 10.5918C14.2154 12.4318 15.7087 13.8385 17.562 14.0251" stroke="#1D293D" stroke-miterlimit="10" stroke-linecap="round" stroke-linejoin="round"/>
<path d="M14.8425 9.62638L9.36917 15.4197C9.16251 15.6397 8.96251 16.073 8.92251 16.373L8.67584 18.533C8.58917 19.313 9.14917 19.8464 9.92251 19.713L12.0692 19.3464C12.3692 19.293 12.7892 19.073 12.9958 18.8464L18.4692 13.053C19.4158 12.053 19.8425 10.913 18.3692 9.51971C16.9025 8.13971 15.7892 8.62638 14.8425 9.62638Z" stroke="#1D293D" stroke-miterlimit="10" stroke-linecap="round" stroke-linejoin="round"/>
</g>
<defs>
<filter id="filter0_i_302_3666" x="0" y="0" width="28" height="28" filterUnits="userSpaceOnUse" color-interpolation-filters="sRGB">
<feFlood flood-opacity="0" result="BackgroundImageFix"/>
<feBlend mode="normal" in="SourceGraphic" in2="BackgroundImageFix" result="shape"/>
<feColorMatrix in="SourceAlpha" type="matrix" values="0 0 0 0 0 0 0 0 0 0 0 0 0 0 0 0 0 0 127 0" result="hardAlpha"/>
<feMorphology radius="1" operator="erode" in="SourceAlpha" result="effect1_innerShadow_302_3666"/>
<feOffset/>
<feGaussianBlur stdDeviation="1"/>
<feComposite in2="hardAlpha" operator="arithmetic" k2="-1" k3="1"/>
<feColorMatrix type="matrix" values="0 0 0 0 1 0 0 0 0 1 0 0 0 0 1 0 0 0 0.15 0"/>
<feBlend mode="normal" in2="shape" result="effect1_innerShadow_302_3666"/>
</filter>
</defs>
</svg>
