<svg width="119" height="20" viewBox="0 0 119 20" fill="none" xmlns="http://www.w3.org/2000/svg">
<g clip-path="url(#clip0_302_3558)">
<path d="M11.3553 18.1113V0.0976102H15.2154V18.1113H11.3553ZM0.0581544 18.1113V0.0976102H3.91824V18.1113H0.0581544ZM3.42929 10.4684V7.35457H11.9729V10.4684H3.42929Z" fill="#252F3D"/>
<path d="M28.3387 18.1113V5.14145H31.7613L32.1216 7.50897C32.4647 6.95998 32.8679 6.48819 33.3311 6.09361C33.7943 5.69902 34.3261 5.39021 34.9266 5.16719C35.5442 4.94416 36.2047 4.83264 36.9081 4.83264V8.92433H35.6214C35.1067 8.92433 34.6349 8.98438 34.206 9.10447C33.7943 9.2074 33.434 9.38754 33.1252 9.64488C32.8336 9.90222 32.602 10.2539 32.4304 10.7C32.276 11.1289 32.1988 11.6693 32.1988 12.3212V18.1113H28.3387ZM44.9669 18.4201C43.6287 18.4201 42.4535 18.1456 41.4413 17.5967C40.4291 17.0305 39.6314 16.2499 39.0481 15.2549C38.4819 14.2427 38.1989 13.0846 38.1989 11.7808C38.1989 10.4426 38.4819 9.25029 39.0481 8.20378C39.6142 7.15727 40.4034 6.33379 41.4156 5.73333C42.4278 5.13287 43.603 4.83264 44.9412 4.83264C46.245 4.83264 47.3859 5.11572 48.3638 5.68186C49.3416 6.24801 50.1051 7.02003 50.6541 7.99791C51.2202 8.95864 51.5033 10.0738 51.5033 11.3433C51.5033 11.5149 51.4947 11.7122 51.4776 11.9352C51.4776 12.1411 51.4604 12.3555 51.4261 12.5785H40.9524V10.3397H47.566C47.5317 9.61915 47.2658 9.04442 46.7683 8.61553C46.2879 8.16947 45.6874 7.94644 44.9669 7.94644C44.4179 7.94644 43.9204 8.07511 43.4743 8.33245C43.0283 8.58979 42.668 8.9758 42.3935 9.49048C42.1362 10.0052 42.0075 10.6571 42.0075 11.4463V12.2183C42.0075 12.8187 42.119 13.3506 42.342 13.8138C42.5822 14.277 42.9168 14.6373 43.3456 14.8946C43.7917 15.1519 44.315 15.2806 44.9154 15.2806C45.4816 15.2806 45.9448 15.1691 46.305 14.9461C46.6825 14.7059 46.9741 14.4056 47.18 14.0454H51.1173C50.8771 14.8689 50.4654 15.6151 49.8821 16.2842C49.2988 16.9361 48.5868 17.4594 47.7461 17.854C46.9055 18.2314 45.9791 18.4201 44.9669 18.4201Z" fill="#252F3D"/>
<path d="M55.0582 18.1113V0.0976102H61.3115C63.4045 0.0976102 65.1287 0.475041 66.484 1.2299C67.8565 1.96761 68.8687 3.01412 69.5206 4.36943C70.1897 5.7076 70.5242 7.28594 70.5242 9.10447C70.5242 10.9058 70.1897 12.4842 69.5206 13.8395C68.8687 15.1777 67.8565 16.2242 66.484 16.979C65.1287 17.7339 63.4045 18.1113 61.3115 18.1113H55.0582ZM58.9182 14.7917H61.0799C62.4695 14.7917 63.5675 14.5686 64.3738 14.1226C65.1801 13.6594 65.7463 13.0074 66.0723 12.1668C66.4154 11.309 66.5869 10.2882 66.5869 9.10447C66.5869 7.90355 66.4154 6.88278 66.0723 6.04214C65.7463 5.18434 65.1801 4.53242 64.3738 4.08636C63.5675 3.62315 62.4695 3.39155 61.0799 3.39155H58.9182V14.7917ZM77.782 18.4201C76.7012 18.4201 75.7834 18.1971 75.0285 17.7511C74.2908 17.305 73.7247 16.6531 73.3301 15.7953C72.9526 14.9203 72.7639 13.8567 72.7639 12.6043V5.14145H76.624V12.2183C76.624 13.179 76.8213 13.9167 77.2159 14.4314C77.6105 14.9289 78.2452 15.1777 79.1202 15.1777C79.652 15.1777 80.1238 15.0576 80.5356 14.8174C80.9645 14.5772 81.2904 14.2255 81.5134 13.7623C81.7536 13.2991 81.8737 12.7329 81.8737 12.0639V5.14145H85.7338V18.1113H82.3627L82.0539 16.0526C81.6764 16.756 81.1274 17.3307 80.4069 17.7768C79.6863 18.2057 78.8114 18.4201 77.782 18.4201ZM94.3816 18.4201C93.2322 18.4201 92.1857 18.1285 91.2421 17.5452C90.3157 16.9619 89.578 16.1641 89.029 15.1519C88.4972 14.1226 88.2313 12.956 88.2313 11.6521C88.2313 10.3311 88.5057 9.16452 89.0547 8.15232C89.6037 7.12296 90.35 6.31663 91.2936 5.73333C92.2543 5.13287 93.318 4.83264 94.4846 4.83264C95.3767 4.83264 96.1573 4.99563 96.8264 5.32159C97.4954 5.6304 98.0444 6.08503 98.4733 6.68548V-0.417067H102.333V18.1113H98.9108L98.4733 16.4386C98.216 16.7989 97.8986 17.1334 97.5212 17.4422C97.1609 17.7339 96.7234 17.9655 96.2088 18.1371C95.6941 18.3258 95.085 18.4201 94.3816 18.4201ZM95.3853 15.049C96.02 15.049 96.5776 14.9032 97.058 14.6115C97.5555 14.3199 97.9329 13.9167 98.1903 13.402C98.4648 12.8873 98.602 12.2955 98.602 11.6264C98.602 10.9573 98.4648 10.3654 98.1903 9.85075C97.9329 9.33607 97.5555 8.93291 97.058 8.64126C96.5776 8.34961 96.02 8.20378 95.3853 8.20378C94.7677 8.20378 94.2101 8.34961 93.7126 8.64126C93.2322 8.93291 92.8548 9.33607 92.5803 9.85075C92.3058 10.3654 92.1685 10.9487 92.1685 11.6007C92.1685 12.2697 92.3058 12.8702 92.5803 13.402C92.8548 13.9167 93.2322 14.3199 93.7126 14.6115C94.2101 14.9032 94.7677 15.049 95.3853 15.049ZM111.604 18.4201C110.265 18.4201 109.09 18.1456 108.078 17.5967C107.066 17.0305 106.268 16.2499 105.685 15.2549C105.119 14.2427 104.835 13.0846 104.835 11.7808C104.835 10.4426 105.119 9.25029 105.685 8.20378C106.251 7.15727 107.04 6.33379 108.052 5.73333C109.064 5.13287 110.24 4.83264 111.578 4.83264C112.882 4.83264 114.022 5.11572 115 5.68186C115.978 6.24801 116.742 7.02003 117.291 7.99791C117.857 8.95864 118.14 10.0738 118.14 11.3433C118.14 11.5149 118.131 11.7122 118.114 11.9352C118.114 12.1411 118.097 12.3555 118.063 12.5785H107.589V10.3397H114.203C114.168 9.61915 113.902 9.04442 113.405 8.61553C112.925 8.16947 112.324 7.94644 111.604 7.94644C111.055 7.94644 110.557 8.07511 110.111 8.33245C109.665 8.58979 109.305 8.9758 109.03 9.49048C108.773 10.0052 108.644 10.6571 108.644 11.4463V12.2183C108.644 12.8187 108.756 13.3506 108.979 13.8138C109.219 14.277 109.553 14.6373 109.982 14.8946C110.428 15.1519 110.952 15.2806 111.552 15.2806C112.118 15.2806 112.581 15.1691 112.942 14.9461C113.319 14.7059 113.611 14.4056 113.817 14.0454H117.754C117.514 14.8689 117.102 15.6151 116.519 16.2842C115.935 16.9361 115.223 17.4594 114.383 17.854C113.542 18.2314 112.616 18.4201 111.604 18.4201Z" fill="#252F3D"/>
<mask id="mask0_302_3558" style="mask-type:alpha" maskUnits="userSpaceOnUse" x="18" y="0" width="8" height="20">
<path d="M25.2753 0H18.6113L19.7224 3.43715H24.1642L25.2753 0Z" fill="black"/>
<path d="M24.18 4.33789H19.7383L18.332 14.7222L21.9593 19.5974L25.5543 14.7222L24.18 4.33789Z" fill="black"/>
</mask>
<g mask="url(#mask0_302_3558)">
<path d="M17.7773 0H22.2218V20H17.7773V10V0Z" fill="#772474"/>
<path d="M21.9434 -0.0263666H26.3878V19.9736H21.9434V-0.0263666Z" fill="#943195"/>
</g>
</g>
<defs>
<clipPath id="clip0_302_3558">
<rect width="118.333" height="20" fill="white"/>
</clipPath>
</defs>
</svg>
