<svg width="40" height="40" viewBox="0 0 40 40" fill="none" xmlns="http://www.w3.org/2000/svg">
<rect x="0.5" y="0.5" width="39" height="39" rx="19.5" fill="#F1F5F9"/>
<rect x="0.5" y="0.5" width="39" height="39" rx="19.5" stroke="#E2E8F0"/>
<path d="M15.4813 22.9016C14.3023 23.6037 11.2111 25.0371 13.0939 26.8308C14.0136 27.707 15.0379 28.3337 16.3257 28.3337H23.6743C24.9621 28.3337 25.9864 27.707 26.9061 26.8308C28.7889 25.0371 25.6977 23.6037 24.5187 22.9016C21.754 21.2554 18.246 21.2554 15.4813 22.9016Z" stroke="#1D293D" stroke-width="1.5" stroke-linecap="round" stroke-linejoin="round"/>
<path d="M23.75 15.417C23.75 17.4881 22.0711 19.167 20 19.167C17.9289 19.167 16.25 17.4881 16.25 15.417C16.25 13.3459 17.9289 11.667 20 11.667C22.0711 11.667 23.75 13.3459 23.75 15.417Z" stroke="#1D293D" stroke-width="1.5"/>
</svg>
